<?xml version="1.0" encoding="UTF-8"?>
<!DOCTYPE svg PUBLIC "-//W3C//DTD SVG 1.1//EN" "http://www.w3.org/Graphics/SVG/1.1/DTD/svg11.dtd">
<!-- Creator: CorelDRAW -->
<svg xmlns="http://www.w3.org/2000/svg" xml:space="preserve" width="2048px" height="2048px" style="shape-rendering:geometricPrecision; text-rendering:geometricPrecision; image-rendering:optimizeQuality; fill-rule:evenodd; clip-rule:evenodd"
viewBox="0 0 2048 2048"
 xmlns:xlink="http://www.w3.org/1999/xlink">
 <defs>
  <style type="text/css">
   <![CDATA[
    .fil1 {fill:none}
    .fil2 {fill:#5D4037}
    .fil0 {fill:#FFD54F}
   ]]>
  </style>
 </defs>
 <g id="Layer_x0020_1">
  <metadata id="CorelCorpID_0Corel-Layer"/>
  <path class="fil0" d="M1024 255.999c424.155,0 768.001,343.845 768.001,768.001 0,424.155 -343.845,768.001 -768.001,768.001 -424.155,0 -768.001,-343.845 -768.001,-768.001 0,-424.155 343.845,-768.001 768.001,-768.001z"/>
  <rect class="fil1" width="2048" height="2048"/>
  <rect class="fil1" x="255.999" y="255.999" width="1536" height="1536"/>
  <rect class="fil1" width="2048" height="2048"/>
  <rect class="fil1" x="255.999" y="255.999" width="1536" height="1536"/>
  <rect class="fil1" width="2048" height="2048"/>
  <rect class="fil1" x="255.999" y="255.999" width="1536" height="1536"/>
  <rect class="fil1" width="2048" height="2048"/>
  <rect class="fil1" x="255.999" y="255.999" width="1536" height="1536"/>
  <g id="_395564536">
   <path id="_395565256" class="fil2" d="M1115.45 798.64c0,-53.015 21.4937,-101.017 56.2382,-135.762 34.7469,-34.7469 82.7469,-56.2382 135.762,-56.2382 53.015,0 101.017,21.4914 135.762,56.2382 34.7469,34.7445 56.2382,82.7469 56.2382,135.762l-64.0016 0c0,-35.3492 -14.3268,-67.3512 -37.487,-90.5115 -23.1603,-23.1603 -55.1622,-37.487 -90.5115,-37.487 -35.3492,0 -67.3501,14.3256 -90.5115,37.487 -23.1603,23.1603 -37.487,55.1622 -37.487,90.5115l-64.0016 0z"/>
   <path id="_395565088" class="fil2" d="M1307.44 734.64c34.8,0 63.0107,28.2107 63.0107,63.0107 0,34.7988 -28.2107,63.0095 -63.0107,63.0095 -34.8,0 -63.0095,-28.2107 -63.0095,-63.0095 0,-34.8 28.2095,-63.0107 63.0095,-63.0107z"/>
   <path id="_395564920" class="fil2" d="M548.549 798.64c0,-106.032 85.9678,-192 192,-192 106.031,0 192,85.969 192,192l-64.0016 0c0,-70.6985 -57.3,-127.999 -127.999,-127.999 -70.6985,0 -127.999,57.3 -127.999,127.999l-64.0016 0z"/>
   <path id="_395564752" class="fil2" d="M740.534 734.64c34.8,0 63.0107,28.2107 63.0107,63.0107 0,34.7988 -28.2107,63.0095 -63.0107,63.0095 -34.8,0 -63.0095,-28.2107 -63.0095,-63.0095 0,-34.8 28.2095,-63.0107 63.0095,-63.0107z"/>
   <path id="_395564608" class="fil2" d="M675.09 1441.36c54.404,-312.78 657.185,-300.019 704.001,0 -114.196,-155.313 -489.486,-229.459 -704.001,0z"/>
  </g>
 </g>
</svg>
