<svg width="426.44140625px" height="117.91999816894531px" xmlns="http://www.w3.org/2000/svg" viewBox="36.779296875 16.040000915527344 426.44140625 117.91999816894531" style="background: rgba(0, 0, 0, 0);" preserveAspectRatio="xMidYMid"><defs><filter id="editing-metal-beveled"><feGaussianBlur stdDeviation="4" in="SourceAlpha" result="blur"></feGaussianBlur><feSpecularLighting surfaceScale="5" specularConstant="0.8" specularExponent="7.5" lighting-color="#fff" in="blur" result="specular"><fePointLight x="-250" y="-50" z="300"></fePointLight></feSpecularLighting><feComposite operator="in" in="specular" in2="SourceAlpha" result="comp"></feComposite><feComposite in="SourceGraphic" in2="comp" operator="arithmetic" k1="0" k2="1" k3="1" k4="0"></feComposite></filter></defs><g filter="url(#editing-metal-beveled)"><g transform="translate(102.76235443353653, 97.23999977111816)"><path d="M18.37-35.46L18.37-35.46L18.37-35.46Q18.37-35.65 18.62-35.65L18.62-35.65L18.62-35.65Q18.88-35.65 18.88-34.94L18.88-34.94L18.88-34.94Q18.88-34.24 18.69-32.32L18.69-32.32L21.50-32.32L22.53-33.28L22.53-33.28Q23.04-33.66 23.36-33.66L23.36-33.66L23.36-33.66Q24-33.66 24.06-32.38L24.06-32.38L24.06-32.38Q25.22-32.32 25.15-31.68L25.15-31.68L25.15-31.68Q25.15-30.91 23.74-30.91L23.74-30.91L23.74-30.91Q22.98-25.66 21.95-21.18L21.95-21.18L21.95-21.18Q24.06-21.06 25.41-20.74L25.41-20.74L25.41-20.74Q28.29-26.50 31.17-29.89L31.17-29.89L31.17-29.89Q34.05-33.28 38.53-34.37L38.53-34.37L39.49-34.56L39.49-34.56Q40.06-34.62 40.64-34.62L40.64-34.62L40.64-34.62Q43.26-34.62 45.50-32.67L45.50-32.67L45.50-32.67Q47.74-30.72 48.13-27.33L48.13-27.33L48.13-27.33Q48.13-26.37 48.06-26.37L48.06-26.37L48.06-26.37Q47.81-26.37 47.81-27.14L47.81-27.14L47.81-27.14Q47.42-30.27 45.15-31.62L45.15-31.62L45.15-31.62Q42.88-32.96 40.45-32.96L40.45-32.96L40.45-32.96Q35.97-32.96 32.61-29.38L32.61-29.38L32.61-29.38Q29.25-25.79 26.24-20.54L26.24-20.54L26.24-20.54Q30.59-19.33 32.64-16.64L32.64-16.64L32.64-16.64Q34.11-14.66 34.11-12.61L34.11-12.61L34.11-12.61Q34.11-11.78 33.86-10.94L33.86-10.94L33.86-10.94Q32.83-7.62 28.99-5.76L28.99-5.76L28.99-5.76Q32.38-1.41 34.43 0L34.43 0L34.43 0Q36.80 1.54 38.27 1.54L38.27 1.54L38.27 1.54Q40.70 1.54 40.70-1.47L40.70-1.47L40.70-1.47Q40.70-4.48 38.91-7.10L38.91-7.10L38.91-7.10Q38.78-7.23 38.78-7.36L38.78-7.36L38.78-7.36Q38.78-7.49 38.91-7.49L38.91-7.49L38.91-7.49Q39.04-7.49 39.36-7.17L39.36-7.17L39.36-7.17Q41.47-4.74 41.47-2.27L41.47-2.27L41.47-2.27Q41.47 0.19 40.22 1.60L40.22 1.60L40.22 1.60Q38.98 3.01 36.93 3.01L36.93 3.01L36.93 3.01Q33.98 3.01 30.72 0.13L30.72 0.13L30.72 0.13Q28.35-1.86 26.43-4.93L26.43-4.93L26.43-4.93Q25.47-4.74 24.58-4.74L24.58-4.74L24.58-4.74Q22.08-4.74 20.03-6.08L20.03-6.08L20.03-6.08Q19.84-6.21 19.97-6.43L19.97-6.43L19.97-6.43Q20.10-6.66 20.35-6.53L20.35-6.53L20.35-6.53Q22.34-5.25 24.45-5.25L24.45-5.25L24.45-5.25Q25.28-5.25 26.11-5.44L26.11-5.44L26.11-5.44Q24.96-7.36 23.04-11.10L23.04-11.10L23.04-11.10Q21.12-14.85 20.61-15.81L20.61-15.81L20.61-15.81Q16.32 0 10.62 3.07L10.62 3.07L10.62 3.07Q9.73 3.52 8.48 3.52L8.48 3.52L8.48 3.52Q7.23 3.52 5.70 2.40L5.70 2.40L5.70 2.40Q4.16 1.28 4.16 0.77L4.16 0.77L4.16 0.77Q4.16 0.45 4.42 0.45L4.42 0.45L4.42 0.45Q4.67 0.45 4.77 0.58L4.77 0.58L4.77 0.58Q4.86 0.70 5.06 0.99L5.06 0.99L5.06 0.99Q5.25 1.28 5.57 1.47L5.57 1.47L5.57 1.47Q6.72 2.30 7.52 2.30L7.52 2.30L7.52 2.30Q8.32 2.30 8.70 2.24L8.70 2.24L8.70 2.24Q11.97 1.47 14.78-5.28L14.78-5.28L14.78-5.28Q17.60-12.03 19.33-20.67L19.33-20.67L19.33-20.67Q17.60-20.54 16.77-20.35L16.77-20.35L16.77-20.35Q15.04-12.74 12.64-7.17L12.64-7.17L12.64-7.17Q10.24-1.60 6.21-0.45L6.21-0.45L6.21-0.45Q3.01 0.45 1.15-2.05L1.15-2.05L1.15-2.05Q-0.06-3.58-0.06-5.57L-0.06-5.57L-0.06-5.57Q-0.06-8.83 2.18-12.13L2.18-12.13L2.18-12.13Q4.42-15.42 9.15-18.05L9.15-18.05L9.15-18.05Q1.60-20.61 1.60-24.58L1.60-24.58L1.60-24.58Q1.60-27.58 6.30-29.86L6.30-29.86L6.30-29.86Q11.01-32.13 18.18-32.32L18.18-32.32L18.18-32.32Q18.37-34.24 18.37-35.46ZM1.15-6.27L1.15-6.27L1.15-6.27Q1.15-4.93 1.66-3.71L1.66-3.71L1.66-3.71Q2.82-1.28 5.31-1.28L5.31-1.28L5.31-1.28Q9.54-1.28 12.29-7.62L12.29-7.62L12.29-7.62Q14.66-13.18 16.19-20.22L16.19-20.22L16.19-20.22Q13.50-19.71 10.82-18.30L10.82-18.30L11.07-18.24L11.07-18.24Q11.58-18.11 11.14-17.86L11.14-17.86L11.14-17.86Q10.75-17.54 9.92-17.79L9.92-17.79L9.92-17.79Q5.44-15.30 3.30-12.10L3.30-12.10L3.30-12.10Q1.15-8.90 1.15-6.27ZM5.25-26.75L5.25-26.75L5.25-26.75Q3.84-25.28 3.84-23.94L3.84-23.94L3.84-23.94Q3.84-22.59 4.74-21.44L4.74-21.44L4.74-21.44Q6.21-19.39 9.92-18.50L9.92-18.50L9.92-18.50Q13.12-20.10 16.32-20.80L16.32-20.80L16.32-20.80Q17.41-25.60 17.98-30.91L17.98-30.91L17.98-30.91Q8.77-30.66 5.25-26.75ZM25.92-20.10L22.72-14.21L28.61-6.27L28.61-6.27Q32-8.06 32.90-11.07L32.90-11.07L32.90-11.07Q33.15-11.84 33.15-13.18L33.15-13.18L33.15-13.18Q33.15-14.53 31.87-16.38L31.87-16.38L31.87-16.38Q30.02-18.94 25.92-20.10L25.92-20.10ZM19.39-21.18L19.39-21.18L19.39-21.18Q20.67-27.39 20.67-30.85L20.67-30.85L20.67-30.85Q19.97-30.91 18.50-30.91L18.50-30.91L18.50-30.91Q17.92-25.79 16.90-20.93L16.90-20.93L16.90-20.93Q18.43-21.18 19.39-21.18ZM21.82-20.74L21.82-20.74L21.82-20.74Q21.57-19.46 20.93-16.90L20.93-16.90L22.40-14.59L25.22-20.29L25.22-20.29Q23.23-20.67 21.82-20.74ZM52.42-5.63L52.42-5.63L52.42-5.63Q52.42-1.60 53.82-1.60L53.82-1.60L53.82-1.60Q55.74-1.60 59.07-5.76L59.07-5.76L59.07-5.76Q59.71-6.53 59.81-6.62L59.81-6.62L59.81-6.62Q59.90-6.72 60.03-6.34L60.03-6.34L60.10-6.21L60.10-6.21Q59.58-4.93 56.99-2.37L56.99-2.37L56.99-2.37Q54.40 0.19 52.61 0.19L52.61 0.19L52.61 0.19Q51.97 0.19 51.39-0.13L51.39-0.13L51.39-0.13Q49.79-0.90 49.79-5.76L49.79-5.76L49.79-5.76Q49.79-6.53 49.92-7.90L49.92-7.90L49.92-7.90Q50.05-9.28 50.18-9.41L50.18-9.41L50.18-9.41Q50.18-9.47 50.02-9.31L50.02-9.31L50.02-9.31Q49.86-9.15 49.50-8.74L49.50-8.74L49.50-8.74Q49.15-8.32 48.77-7.87L48.77-7.87L48.77-7.87Q48.38-7.42 47.87-6.72L47.87-6.72L47.87-6.72Q47.36-6.02 46.91-5.50L46.91-5.50L46.91-5.50Q45.76-4.22 45.12-3.20L45.12-3.20L45.12-3.20Q44.93-0.90 43.46 0L43.46 0L43.46 0Q43.14 0.19 42.98 0.19L42.98 0.19L42.98 0.19Q42.82 0.19 42.82-0.99L42.82-0.99L42.82-0.99Q42.82-2.18 43.65-7.10L43.65-7.10L43.65-7.10Q44.48-12.03 45.18-13.89L45.18-13.89L45.18-13.89Q43.20-13.38 43.07-12.29L43.07-12.29L43.07-12.29Q42.94-11.52 42.66-11.55L42.66-11.55L42.66-11.55Q42.37-11.58 42.37-12.10L42.37-12.10L42.37-12.10Q42.37-14.08 45.63-15.04L45.63-15.04L45.63-15.04Q47.30-20.48 50.50-25.79L50.50-25.79L50.50-25.79Q53.70-31.10 57.60-34.05L57.60-34.05L57.60-34.05Q61.50-37.12 65.54-37.12L65.54-37.12L65.54-37.12Q67.26-37.12 68.93-36.42L68.93-36.42L68.93-36.42Q71.42-35.33 72.45-32.77L72.45-32.77L72.45-32.77Q72.90-31.62 72.90-30.40L72.90-30.40L72.90-30.40Q72.90-26.69 69.25-23.94L69.25-23.94L69.25-23.94Q66.69-21.95 62.40-20L62.40-20L62.40-20Q58.11-18.05 55.39-17.12L55.39-17.12L55.39-17.12Q52.67-16.19 47.42-14.53L47.42-14.53L47.42-14.53Q46.40-11.78 45.25-4.29L45.25-4.29L45.25-4.29Q46.14-5.63 48.06-8.10L48.06-8.10L48.06-8.10Q49.98-10.56 50.56-11.33L50.56-11.33L50.56-11.33Q50.88-12.74 52.06-13.60L52.06-13.60L52.06-13.60Q53.25-14.46 53.25-13.25L53.25-13.25L53.25-13.25Q53.25-12.93 52.83-10.30L52.83-10.30L52.83-10.30Q52.42-7.68 52.42-5.63ZM71.87-32.06L71.87-32.06L71.87-32.06Q70.66-35.26 65.79-35.26L65.79-35.26L65.79-35.26Q61.25-35.26 56.90-32.13L56.90-32.13L56.90-32.13Q54.98-30.78 52.61-27.26L52.61-27.26L52.61-27.26Q51.26-25.22 50.34-22.82L50.34-22.82L50.34-22.82Q49.41-20.42 48.67-18.34L48.67-18.34L48.67-18.34Q47.94-16.26 47.68-15.62L47.68-15.62L47.68-15.62Q51.97-16.83 58.78-20L58.78-20L58.78-20Q65.60-23.17 68.86-25.70L68.86-25.70L68.86-25.70Q72.13-28.22 72.13-30.66L72.13-30.66L72.13-30.66Q72.13-31.36 71.87-32.06ZM73.79-1.09L73.79-1.09L73.79-1.09Q75.71-1.09 78.78-4.54L78.78-4.54L79.17-4.29L79.17-4.29Q79.04-3.90 77.89-2.72L77.89-2.72L77.89-2.72Q76.74-1.54 75.10-0.67L75.10-0.67L75.10-0.67Q73.47 0.19 72.61 0.19L72.61 0.19L72.61 0.19Q71.74 0.19 71.23 0L71.23 0L71.23 0Q70.08-0.38 69.41-2.24L69.41-2.24L69.41-2.24Q68.74-4.10 68.61-5.73L68.61-5.73L68.61-5.73Q68.48-7.36 68.54-7.42L68.54-7.42L68.54-7.42Q68.03-6.66 67.62-5.92L67.62-5.92L67.62-5.92Q67.20-5.18 66.62-4.35L66.62-4.35L66.62-4.35Q66.05-3.52 65.34-2.69L65.34-2.69L65.34-2.69Q63.10 0.26 61.50 0.26L61.50 0.26L61.50 0.26Q61.38 0.26 61.31 0.26L61.31 0.26L61.31 0.26Q58.88-0.13 58.88-3.20L58.88-3.20L58.88-3.20Q58.88-7.87 63.55-14.85L63.55-14.85L63.55-14.85Q63.94-15.42 64.70-15.42L64.70-15.42L64.70-15.42Q65.47-15.42 66.18-15.30L66.18-15.30L66.18-15.30Q67.14-14.91 67.07-14.59L67.07-14.59L67.07-14.59Q65.54-13.06 63.81-9.98L63.81-9.98L63.81-9.98Q60.86-4.61 60.86-2.37L60.86-2.37L60.86-2.37Q60.86-1.15 61.66-1.15L61.66-1.15L61.66-1.15Q62.46-1.15 63.52-2.08L63.52-2.08L63.52-2.08Q64.58-3.01 65.28-3.97L65.28-3.97L65.28-3.97Q65.98-4.93 66.56-5.73L66.56-5.73L66.56-5.73Q67.14-6.53 67.97-7.84L67.97-7.84L67.97-7.84Q68.80-9.15 69.25-9.79L69.25-9.79L69.25-9.79Q69.70-10.43 70.18-10.78L70.18-10.78L70.18-10.78Q70.66-11.14 70.94-10.85L70.94-10.85L70.94-10.85Q71.23-10.56 71.20-9.76L71.20-9.76L71.20-9.76Q71.17-8.96 71.17-8.38L71.17-8.38L71.17-8.38Q71.17-1.09 73.79-1.09ZM76.29 1.79L76.29 1.79L76.29 1.79Q73.98 1.79 73.98 0.64L73.98 0.64L73.98 0.64Q73.98 0.26 74.53-0.16L74.53-0.16L74.53-0.16Q75.07-0.58 76.10-0.64L76.10-0.64L76.10-0.64Q82.30-1.15 82.75-1.28L82.75-1.28L82.75-1.28Q83.20-1.98 83.20-2.91L83.20-2.91L83.20-2.91Q83.20-3.84 81.47-5.31L81.47-5.31L81.47-5.31Q79.74-6.78 78.98-8.38L78.98-8.38L78.98-8.38Q78.21-9.98 78.21-10.94L78.21-10.94L78.21-10.94Q78.21-11.90 78.72-12.74L78.72-12.74L78.72-12.74Q80.96-16.45 83.97-16.45L83.97-16.45L83.97-16.45Q86.53-16.45 87.30-14.72L87.30-14.72L87.30-14.72Q87.49-14.21 87.33-13.82L87.33-13.82L87.33-13.82Q87.17-13.44 86.98-13.50L86.98-13.50L86.98-13.50Q86.78-13.57 86.72-13.89L86.72-13.89L86.72-13.89Q86.59-15.04 85.63-15.04L85.63-15.04L85.63-15.04Q85.12-15.04 84.42-14.72L84.42-14.72L84.42-14.72Q81.79-13.70 80.77-11.14L80.77-11.14L80.77-11.14Q80.51-10.50 80.51-9.79L80.51-9.79L80.51-9.79Q80.51-9.09 80.96-8.06L80.96-8.06L80.96-8.06Q81.41-7.04 82.43-6.14L82.43-6.14L82.43-6.14Q84.22-4.61 84.22-2.94L84.22-2.94L84.22-2.94Q84.22-2.30 83.90-1.66L83.90-1.66L83.90-1.66Q87.17-3.20 88.96-4.48L88.96-4.48L89.09-4.42L89.09-4.42Q89.02-3.58 85.89-1.92L85.89-1.92L85.89-1.92Q84.86-1.34 84.10-0.90L84.10-0.90L83.39-0.45L83.39-0.45Q82.75 0.77 79.23 1.41L79.23 1.41L79.23 1.41Q77.44 1.79 76.29 1.79ZM98.56-5.63L98.56-5.63L98.56-5.63Q98.56-1.60 99.97-1.60L99.97-1.60L99.97-1.60Q101.89-1.60 105.22-5.76L105.22-5.76L105.22-5.76Q105.86-6.53 105.95-6.62L105.95-6.62L105.95-6.62Q106.05-6.72 106.18-6.34L106.18-6.34L106.24-6.21L106.24-6.21Q105.73-4.93 103.14-2.37L103.14-2.37L103.14-2.37Q100.54 0.19 98.75 0.19L98.75 0.19L98.75 0.19Q98.11 0.19 97.54-0.13L97.54-0.13L97.54-0.13Q95.94-0.90 95.94-5.76L95.94-5.76L95.94-5.76Q95.94-6.53 96.06-7.90L96.06-7.90L96.06-7.90Q96.19-9.28 96.32-9.41L96.32-9.41L96.32-9.41Q96.32-9.47 96.16-9.31L96.16-9.31L96.16-9.31Q96-9.15 95.65-8.74L95.65-8.74L95.65-8.74Q95.30-8.32 94.91-7.87L94.91-7.87L94.91-7.87Q94.53-7.42 94.02-6.72L94.02-6.72L94.02-6.72Q93.50-6.02 93.06-5.50L93.06-5.50L93.06-5.50Q91.90-4.22 91.26-3.20L91.26-3.20L91.26-3.20Q91.07-0.90 89.60 0L89.60 0L89.60 0Q89.28 0.19 89.12 0.19L89.12 0.19L89.12 0.19Q88.96 0.19 88.96-0.99L88.96-0.99L88.96-0.99Q88.96-2.18 89.79-7.10L89.79-7.10L89.79-7.10Q90.62-12.03 91.33-13.89L91.33-13.89L91.33-13.89Q89.34-13.38 89.22-12.29L89.22-12.29L89.22-12.29Q89.09-11.52 88.80-11.55L88.80-11.55L88.80-11.55Q88.51-11.58 88.51-12.10L88.51-12.10L88.51-12.10Q88.51-14.08 91.78-15.04L91.78-15.04L91.78-15.04Q93.44-20.48 96.64-25.79L96.64-25.79L96.64-25.79Q99.84-31.10 103.74-34.05L103.74-34.05L103.74-34.05Q107.65-37.12 111.68-37.12L111.68-37.12L111.68-37.12Q113.41-37.12 115.07-36.42L115.07-36.42L115.07-36.42Q117.57-35.33 118.59-32.77L118.59-32.77L118.59-32.77Q119.04-31.62 119.04-30.40L119.04-30.40L119.04-30.40Q119.04-26.69 115.39-23.94L115.39-23.94L115.39-23.94Q112.83-21.95 108.54-20L108.54-20L108.54-20Q104.26-18.05 101.54-17.12L101.54-17.12L101.54-17.12Q98.82-16.19 93.57-14.53L93.57-14.53L93.57-14.53Q92.54-11.78 91.39-4.29L91.39-4.29L91.39-4.29Q92.29-5.63 94.21-8.10L94.21-8.10L94.21-8.10Q96.13-10.56 96.70-11.33L96.70-11.33L96.70-11.33Q97.02-12.74 98.21-13.60L98.21-13.60L98.21-13.60Q99.39-14.46 99.39-13.25L99.39-13.25L99.39-13.25Q99.39-12.93 98.98-10.30L98.98-10.30L98.98-10.30Q98.56-7.68 98.56-5.63ZM118.02-32.06L118.02-32.06L118.02-32.06Q116.80-35.26 111.94-35.26L111.94-35.26L111.94-35.26Q107.39-35.26 103.04-32.13L103.04-32.13L103.04-32.13Q101.12-30.78 98.75-27.26L98.75-27.26L98.75-27.26Q97.41-25.22 96.48-22.82L96.48-22.82L96.48-22.82Q95.55-20.42 94.82-18.34L94.82-18.34L94.82-18.34Q94.08-16.26 93.82-15.62L93.82-15.62L93.82-15.62Q98.11-16.83 104.93-20L104.93-20L104.93-20Q111.74-23.17 115.01-25.70L115.01-25.70L115.01-25.70Q118.27-28.22 118.27-30.66L118.27-30.66L118.27-30.66Q118.27-31.36 118.02-32.06ZM112.38-19.65L112.38-19.65L112.38-19.65Q112.83-19.65 112.83-19.36L112.83-19.36L112.83-19.36Q112.83-19.07 112.06-18.18L112.06-18.18L112.06-18.18Q110.40-16.13 108.80-17.41L108.80-17.41L108.80-17.41Q108.54-17.60 108.74-17.79L108.74-17.79L108.74-17.79Q110.98-19.65 112.38-19.65ZM107.46-3.39L107.46-3.39L107.46-3.39Q107.46-1.47 108.61-1.47L108.61-1.47L108.61-1.47Q109.25-1.47 111.78-3.55L111.78-3.55L111.78-3.55Q114.30-5.63 114.50-5.82L114.50-5.82L114.50-5.82Q114.69-6.02 114.82-5.92L114.82-5.92L114.82-5.92Q114.94-5.82 114.94-5.73L114.94-5.73L114.94-5.73Q114.94-5.63 114.88-5.50L114.88-5.50L114.88-5.50Q113.92-3.90 110.85-1.66L110.85-1.66L110.85-1.66Q108.80 0 107.39 0L107.39 0L107.39 0Q105.22 0 105.22-3.71L105.22-3.71L105.22-3.71Q105.22-4.42 105.34-5.73L105.34-5.73L105.34-5.73Q105.47-7.04 107.39-13.82L107.39-13.82L107.39-13.82Q107.52-14.34 108.83-14.34L108.83-14.34L108.83-14.34Q110.14-14.34 110.14-13.60L110.14-13.60L110.14-13.60Q110.14-12.86 109.66-11.68L109.66-11.68L109.66-11.68Q109.18-10.50 108.54-10.37L108.54-10.37L108.54-10.37Q108.22-10.30 107.84-7.17L107.84-7.17L107.84-7.17Q107.46-4.03 107.46-3.39ZM125.89-12.29L125.89-12.29L125.89-12.29Q125.06-13.38 124.16-13.38L124.16-13.38L124.16-13.38Q121.60-13.38 117.95-7.74L117.95-7.74L117.95-7.74Q116.10-4.93 114.75-0.38L114.75-0.38L114.75-0.38Q114.69 0.13 114.18 0.13L114.18 0.13L114.18 0.13Q113.60 0.13 113.60-0.38L113.60-0.38L114.56-7.17L114.56-7.17Q115.20-12.29 115.26-13.60L115.26-13.60L115.26-13.60Q115.33-14.91 116.99-15.42L116.99-15.42L116.99-15.42Q117.50-15.55 118.05-15.55L118.05-15.55L118.05-15.55Q118.59-15.55 118.66-14.98L118.66-14.98L118.66-14.98Q118.66-14.78 118.59-14.56L118.59-14.56L118.59-14.56Q118.53-14.34 117.66-11.17L117.66-11.17L117.66-11.17Q116.80-8 116.54-7.42L116.54-7.42L116.54-7.42Q118.08-10.11 120.45-12.64L120.45-12.64L120.45-12.64Q122.82-15.17 124.10-15.17L124.10-15.17L124.10-15.17Q124.16-15.17 124.16-15.17L124.16-15.17L124.16-15.17Q125.89-15.17 126.40-13.06L126.40-13.06L126.40-13.06Q126.53-12.54 126.53-12.19L126.53-12.19L126.53-12.19Q126.53-11.84 126.34-11.84L126.34-11.84L126.34-11.84Q126.14-11.78 125.89-12.29ZM130.88-9.09L130.88-9.09L130.88-9.09Q129.02-6.59 128.26-4.74L128.26-4.74L128.26-4.74Q127.49-2.88 127.49-1.98L127.49-1.98L127.49-1.98Q127.49-1.09 128.06-1.09L128.06-1.09L128.06-1.09Q129.79-1.09 135.04-8.77L135.04-8.77L135.04-8.77Q137.09-11.39 137.09-8.70L137.09-8.70L137.09-8.70Q136.96-7.04 136.96-5.89L136.96-5.89L136.96-5.89Q136.96-1.02 139.01-1.02L139.01-1.02L139.01-1.02Q141.18-1.02 144.32-4.54L144.32-4.54L144.32-4.54Q144.51-4.74 144.77-4.29L144.77-4.29L144.77-4.29Q144.58-3.84 143.46-2.72L143.46-2.72L143.46-2.72Q142.34-1.60 140.67-0.70L140.67-0.70L140.67-0.70Q139.01 0.19 138.14 0.19L138.14 0.19L138.14 0.19Q137.28 0.19 136.77 0L136.77 0L136.77 0Q134.40-0.83 134.40-6.53L134.40-6.53L134.40-6.53Q131.84-2.50 130.69-1.41L130.69-1.41L130.69-1.41Q128.90 0.26 127.74 0.26L127.74 0.26L127.74 0.26Q127.68 0.26 127.55 0.26L127.55 0.26L127.55 0.26Q125.44-0.06 125.44-2.59L125.44-2.59L125.44-2.59Q125.44-5.12 127.07-8.22L127.07-8.22L127.07-8.22Q128.70-11.33 131.39-13.82L131.39-13.82L131.39-13.82Q134.08-16.32 136.77-16.32L136.77-16.32L136.77-16.32Q138.05-16.32 139.26-15.68L139.26-15.68L139.26-15.68Q140.35-15.04 140.35-13.66L140.35-13.66L140.35-13.66Q140.35-12.29 139.14-12.10L139.14-12.10L139.14-12.10Q139.58-12.86 139.58-13.54L139.58-13.54L139.58-13.54Q139.58-14.21 138.94-14.53L138.94-14.53L138.94-14.53Q138.30-14.85 137.79-14.85L137.79-14.85L137.79-14.85Q135.04-14.85 130.88-9.09ZM162.88 0.26L162.88 0.26L162.88 0.26Q159.23 0.26 159.23-5.18L159.23-5.18L159.23-5.18Q159.23-6.34 159.87-10.05L159.87-10.05L159.87-10.05Q156.03-5.95 154.24-3.52L154.24-3.52L154.24-3.52Q154.18-1.34 151.81 0L151.81 0L151.81 0Q150.72 0.64 150.72 0.26L150.72 0.26L150.72 0.26Q151.30-1.47 151.94-5.79L151.94-5.79L151.94-5.79Q152.58-10.11 152.58-11.97L152.58-11.97L152.58-11.97Q152.45-11.84 150.14-8.83L150.14-8.83L150.14-8.83Q145.15-2.43 144.64-0.93L144.64-0.93L144.64-0.93Q144.13 0.58 142.72 0.96L142.72 0.96L142.72 0.96Q142.46 1.02 142.34 1.02L142.34 1.02L142.34 1.02Q141.95 1.02 141.95 0.64L141.95 0.64L141.95 0.64Q141.95 0.51 142.30-0.99L142.30-0.99L142.30-0.99Q142.66-2.50 142.91-3.58L142.91-3.58L142.91-3.58Q143.81-7.36 143.87-8.80L143.87-8.80L143.87-8.80Q143.94-10.24 143.94-10.94L143.94-10.94L143.94-10.94Q143.94-11.65 143.84-12.86L143.84-12.86L143.84-12.86Q143.74-14.08 145.47-14.85L145.47-14.85L145.47-14.85Q146.18-15.17 146.62-15.17L146.62-15.17L146.62-15.17Q147.52-15.17 147.10-14.08L147.10-14.08L147.10-14.08Q146.69-12.99 145.98-8.32L145.98-8.32L145.98-8.32Q145.28-3.65 145.15-3.46L145.15-3.46L145.15-3.46Q147.65-5.70 151.42-12.03L151.42-12.03L151.42-12.03Q152.77-14.21 153.73-14.21L153.73-14.21L153.73-14.21Q154.62-14.21 154.82-11.26L154.82-11.26L154.82-11.26Q154.82-7.74 154.30-4.67L154.30-4.67L154.30-4.67Q154.82-5.31 156.10-6.78L156.10-6.78L156.10-6.78Q158.21-9.15 160.32-12.03L160.32-12.03L160.32-12.03Q160.77-13.57 161.98-14.46L161.98-14.46L161.98-14.46Q163.20-15.36 163.14-13.89L163.14-13.89L163.14-13.89Q163.14-13.63 162.62-10.62L162.62-10.62L162.62-10.62Q162.11-7.62 161.95-6.43L161.95-6.43L161.95-6.43Q161.79-5.25 161.79-4.74L161.79-4.74L161.79-4.74Q161.79-2.62 162.94-1.92L162.94-1.92L162.94-1.92Q163.39-1.54 164.29-1.54L164.29-1.54L164.29-1.54Q165.18-1.54 166.34-2.30L166.34-2.30L166.34-2.30Q167.49-3.07 168.35-3.81L168.35-3.81L168.35-3.81Q169.22-4.54 169.76-5.15L169.76-5.15L169.76-5.15Q170.30-5.76 170.78-6.34L170.78-6.34L170.78-6.34Q171.26-6.91 171.33-6.98L171.33-6.98L171.33-6.98Q171.65-7.10 171.78-6.59L171.78-6.59L171.78-6.59Q171.01-5.06 167.97-2.40L167.97-2.40L167.97-2.40Q164.93 0.26 162.88 0.26ZM182.78-28.16L182.78-28.16L182.78-28.16Q184.32-32 188.06-34.24L188.06-34.24L188.06-34.24Q191.81-36.48 195.33-36.48L195.33-36.48L195.33-36.48Q198.85-36.48 201.41-34.94L201.41-34.94L201.41-34.94Q201.86-35.01 202.75-35.01L202.75-35.01L202.75-35.01Q209.28-35.01 212.35-31.10L212.35-31.10L212.35-31.10Q213.18-31.68 213.82-31.81L213.82-31.81L213.82-31.81Q214.46-31.94 214.53-31.68L214.53-31.68L214.53-31.68Q214.40-31.23 213.89-31.10L213.89-31.10L213.89-31.10Q213.38-30.98 212.74-30.53L212.74-30.53L212.74-30.53Q214.98-27.20 214.98-21.66L214.98-21.66L214.98-21.66Q214.98-16.13 212.22-8L212.22-8L212.22-8Q212.93-7.87 214.21-7.49L214.21-7.49L215.04-8.96L215.04-8.96Q221.18-19.07 224.38-23.36L224.38-23.36L224.38-23.36Q232.58-34.11 238.53-34.11L238.53-34.11L238.53-34.11Q240.06-34.11 240.99-32.93L240.99-32.93L240.99-32.93Q241.92-31.74 241.92-30.27L241.92-30.27L241.92-30.27Q241.92-29.25 241.70-29.18L241.70-29.18L241.70-29.18Q241.47-29.12 241.41-29.44L241.41-29.44L241.34-29.63L241.34-29.63Q241.34-32.45 238.40-32.45L238.40-32.45L238.40-32.45Q237.31-32.45 235.36-31.58L235.36-31.58L235.36-31.58Q233.41-30.72 230.50-27.94L230.50-27.94L230.50-27.94Q227.58-25.15 224.90-21.50L224.90-21.50L224.90-21.50Q220.42-15.49 217.89-11.49L217.89-11.49L217.89-11.49Q215.36-7.49 215.10-7.10L215.10-7.10L215.10-7.10Q220.61-4.86 220.61-0.77L220.61-0.77L220.61-0.77Q220.61 0.45 220.16 1.79L220.16 1.79L220.16 1.79Q220.10 1.92 219.94 1.95L219.94 1.95L219.94 1.95Q219.78 1.98 219.68 1.86L219.68 1.86L219.68 1.86Q219.58 1.73 219.84 1.02L219.84 1.02L219.84 1.02Q220.10 0.32 220.10-0.96L220.10-0.96L220.10-0.96Q220.10-2.24 219.33-3.46L219.33-3.46L219.33-3.46Q217.98-5.57 214.85-6.72L214.85-6.72L214.85-6.72Q209.66 1.02 208.26 1.02L208.26 1.02L208.26 1.02Q207.87 1.02 208.00 0.64L208.00 0.64L208.00 0.64Q209.60-3.46 210.69-7.74L210.69-7.74L210.69-7.74Q210.05-7.87 208.77-8L208.77-8L208.77-8Q207.23-2.62 204.10 0.99L204.10 0.99L204.10 0.99Q200.96 4.61 197.92 5.98L197.92 5.98L197.92 5.98Q194.88 7.36 192.58 7.36L192.58 7.36L192.58 7.36Q187.97 7.36 186.82 4.35L186.82 4.35L186.82 4.35Q186.37 4.42 185.41 4.42L185.41 4.42L185.41 4.42Q184.45 4.42 183.36 4.26L183.36 4.26L183.36 4.26Q182.27 4.10 181.18 3.36L181.18 3.36L181.18 3.36Q180.10 2.62 180.10 1.54L180.10 1.54L180.10 1.54Q180.10 0.45 180.86 0.26L180.86 0.26L180.86 0.26Q181.25 0.19 181.28 0.38L181.28 0.38L181.28 0.38Q181.31 0.58 181.18 0.70L181.18 0.70L181.18 0.70Q180.61 1.47 181.38 2.24L181.38 2.24L181.38 2.24Q182.85 3.58 185.47 3.58L185.47 3.58L185.47 3.58Q186.05 3.58 186.56 3.52L186.56 3.52L186.56 3.52Q186.50 3.14 186.50 2.75L186.50 2.75L186.50 2.75Q186.50 0.32 188.99-2.56L188.99-2.56L188.99-2.56Q192.19-6.27 199.17-7.94L199.17-7.94L199.17-7.94Q200.19-9.86 201.98-14.21L201.98-14.21L201.98-14.21Q205.18-21.76 207.87-26.05L207.87-26.05L207.87-26.05Q206.14-31.42 202.11-33.98L202.11-33.98L202.11-33.98Q201.66-34.05 200.77-34.05L200.77-34.05L200.77-34.05Q196.35-34.05 191.74-30.59L191.74-30.59L191.74-30.59Q185.54-25.98 184.00-19.07L184.00-19.07L184.00-19.07Q185.92-15.30 189.70-15.30L189.70-15.30L189.70-15.30Q189.82-15.30 189.89-15.30L189.89-15.30L189.89-15.30Q192.45-15.30 194.75-16.90L194.75-16.90L194.75-16.90Q197.06-18.50 197.31-20.67L197.31-20.67L197.31-20.67Q197.31-20.80 197.44-20.86L197.44-20.86L197.44-20.86Q197.57-20.93 197.70-20.83L197.70-20.83L197.70-20.83Q197.82-20.74 197.82-20.61L197.82-20.61L197.82-20.61Q197.57-18.24 195.07-16.51L195.07-16.51L195.07-16.51Q192.58-14.78 189.89-14.78L189.89-14.78L189.89-14.78Q189.82-14.78 189.70-14.78L189.70-14.78L189.70-14.78Q186.11-14.78 183.87-17.73L183.87-17.73L183.87-17.73Q183.81-17.15 183.81-16.58L183.81-16.58L183.81-16.58Q183.81-13.95 185.15-11.90L185.15-11.90L185.15-11.90Q186.50-9.86 189.73-9.86L189.73-9.86L189.73-9.86Q192.96-9.86 195.17-11.42L195.17-11.42L195.17-11.42Q197.38-12.99 198.08-13.98L198.08-13.98L198.08-13.98Q198.78-14.98 198.85-14.69L198.85-14.69L198.85-14.69Q198.91-14.40 198.72-14.02L198.72-14.02L198.72-14.02Q198.02-12.29 195.01-10.34L195.01-10.34L195.01-10.34Q192.00-8.38 189.22-8.38L189.22-8.38L189.22-8.38Q186.43-8.38 184.70-9.47L184.70-9.47L184.70-9.47Q181.70-11.52 181.70-16.19L181.70-16.19L181.70-16.19Q181.70-18.43 182.40-20.67L182.40-20.67L182.40-20.67Q181.95-22.21 181.95-24.03L181.95-24.03L181.95-24.03Q181.95-25.86 182.78-28.16ZM187.84 4.22L187.84 4.22L187.84 4.22Q188.86 6.91 192.64 6.91L192.64 6.91L192.64 6.91Q194.69 6.91 197.12 5.82L197.12 5.82L197.12 5.82Q201.15 3.97 203.90 0.29L203.90 0.29L203.90 0.29Q206.66-3.39 207.94-8L207.94-8L207.94-8Q207.17-8.06 205.73-8.06L205.73-8.06L205.73-8.06Q204.29-8.06 202.05-7.68L202.05-7.68L202.05-7.68Q196.42 3.01 187.84 4.22ZM234.94-27.78L234.94-27.78L234.94-27.78Q235.26-27.78 235.26-27.39L235.26-27.39L235.26-27.39Q235.26-27.01 234.88-27.01L234.88-27.01L234.88-27.01Q234.82-27.01 234.75-27.01L234.75-27.01L234.75-27.01Q232.90-27.01 231.17-23.81L231.17-23.81L231.17-23.81Q228.35-18.56 226.82-7.81L226.82-7.81L226.82-7.81Q226.37-4.48 226.37-3.46L226.37-3.46L226.37-3.46Q226.37 2.18 229.25 2.18L229.25 2.18L229.25 2.18Q230.08 2.18 231.36 1.34L231.36 1.34L231.36 1.34Q232.64 0.51 234.05-1.73L234.05-1.73L234.05-1.73Q234.37-2.24 234.62-2.08L234.62-2.08L234.62-2.08Q234.88-1.92 234.62-1.41L234.62-1.41L234.62-1.41Q233.15 1.47 230.53 2.69L230.53 2.69L230.53 2.69Q229.31 3.33 228.13 3.33L228.13 3.33L228.13 3.33Q226.94 3.33 225.79 2.56L225.79 2.56L225.79 2.56Q223.68 1.22 223.62-2.75L223.62-2.75L223.62-2.75Q223.62-8.38 226.30-17.34L226.30-17.34L226.30-17.34Q227.58-21.76 229.82-24.77L229.82-24.77L229.82-24.77Q232.06-27.78 234.62-27.78L234.62-27.78L234.62-27.78Q234.75-27.78 234.94-27.78ZM200.38-34.88L200.38-34.88L200.38-34.88Q197.76-35.97 194.82-35.97L194.82-35.97L194.82-35.97Q191.87-35.97 188.64-34.02L188.64-34.02L188.64-34.02Q185.41-32.06 184.19-29.22L184.19-29.22L184.19-29.22Q182.98-26.37 182.98-23.81L182.98-23.81L182.98-23.81Q182.98-23.10 183.04-22.40L183.04-22.40L183.62-23.55L183.62-23.55Q186.18-27.97 190.78-31.10L190.78-31.10L190.78-31.10Q195.39-34.24 200.38-34.88ZM208.13-8.58L208.13-8.58L208.13-8.58Q209.09-12.42 209.09-16.51L209.09-16.51L209.09-16.51Q209.09-20.61 208.45-23.68L208.45-23.68L208.45-23.68Q207.49-21.50 205.76-16.80L205.76-16.80L205.76-16.80Q204.03-12.10 203.26-10.37L203.26-10.37L202.43-8.45L202.43-8.45Q203.97-8.64 205.44-8.64L205.44-8.64L205.44-8.64Q206.91-8.64 208.13-8.58ZM187.52 2.82L187.52 2.82L187.52 2.82Q187.52 3.14 187.58 3.39L187.58 3.39L187.58 3.39Q193.79 2.18 198.72-7.04L198.72-7.04L198.72-7.04Q192.70-5.57 190.11-2.53L190.11-2.53L190.11-2.53Q187.52 0.51 187.52 2.82ZM209.22-25.28L209.22-25.28L209.22-25.28Q210.18-22.02 210.18-17.92L210.18-17.92L210.18-17.92Q210.18-13.82 208.90-8.51L208.90-8.51L210.82-8.32L210.82-8.32Q212.35-14.72 212.35-19.71L212.35-19.71L212.35-19.71Q212.35-24.70 210.75-28.16L210.75-28.16L210.75-28.16Q209.98-26.88 209.22-25.28ZM208.58-27.14L208.58-27.14L208.58-27.14Q209.02-27.84 210.18-29.25L210.18-29.25L210.18-29.25Q207.94-33.02 203.33-33.86L203.33-33.86L203.33-33.86Q206.91-31.42 208.58-27.14ZM213.95-7.04L213.95-7.04L212.10-7.55L212.10-7.55Q210.69-3.33 208.90 0.19L208.90 0.19L208.90 0.19Q210.24-0.45 213.95-7.04ZM244.16-15.04L244.16-15.04L244.16-15.04Q245.38-14.08 245.38-12.61L245.38-12.61L245.38-12.61Q245.38-11.14 243.97-9.22L243.97-9.22L245.25-9.22L245.25-9.22Q246.21-9.22 245.18-8.86L245.18-8.86L245.18-8.86Q244.16-8.51 243.26-8.32L243.26-8.32L243.26-8.32Q242.62-7.55 241.79-6.94L241.79-6.94L241.79-6.94Q240.96-6.34 241.02-6.85L241.02-6.85L241.34-7.42L241.98-8.13L241.98-8.13Q236.80-7.74 236.48-7.68L236.48-7.68L236.48-7.68Q235.78-5.95 235.78-3.97L235.78-3.97L235.78-3.97Q235.78-1.98 236.74-1.18L236.74-1.18L236.74-1.18Q237.70-0.38 238.40-0.38L238.40-0.38L238.40-0.38Q242.82-0.38 247.36-5.18L247.36-5.18L247.36-5.18Q247.94-5.76 247.94-5.12L247.94-5.12L247.94-5.12Q247.94-4.93 247.55-4.48L247.55-4.48L247.55-4.48Q246.27-2.94 243.97-1.54L243.97-1.54L243.97-1.54Q240.26 0.83 237.98 0.83L237.98 0.83L237.98 0.83Q235.71 0.83 234.37-0.42L234.37-0.42L234.37-0.42Q233.02-1.66 233.02-4.22L233.02-4.22L233.02-4.22Q233.02-5.12 233.31-6.59L233.31-6.59L233.31-6.59Q233.60-8.06 234.78-10.40L234.78-10.40L234.78-10.40Q235.97-12.74 237.66-14.37L237.66-14.37L237.66-14.37Q239.36-16 240.99-16L240.99-16L240.99-16Q242.62-16 244.16-15.04ZM242.62-9.15L242.62-9.15L242.62-9.15Q243.71-11.39 243.71-12.74L243.71-12.74L243.71-12.74Q243.71-14.08 242.56-14.08L242.56-14.08L242.56-14.08Q241.41-14.08 239.74-12.48L239.74-12.48L239.74-12.48Q238.08-10.88 237.12-9.02L237.12-9.02L237.12-9.02Q241.86-9.15 242.62-9.15ZM258.56-15.04L258.56-15.04L258.56-15.04Q259.78-14.08 259.78-12.61L259.78-12.61L259.78-12.61Q259.78-11.14 258.37-9.22L258.37-9.22L259.65-9.22L259.65-9.22Q260.61-9.22 259.58-8.86L259.58-8.86L259.58-8.86Q258.56-8.51 257.66-8.32L257.66-8.32L257.66-8.32Q257.02-7.55 256.19-6.94L256.19-6.94L256.19-6.94Q255.36-6.34 255.42-6.85L255.42-6.85L255.74-7.42L256.38-8.13L256.38-8.13Q251.20-7.74 250.88-7.68L250.88-7.68L250.88-7.68Q250.18-5.95 250.18-3.97L250.18-3.97L250.18-3.97Q250.18-1.98 251.14-1.18L251.14-1.18L251.14-1.18Q252.10-0.38 252.80-0.38L252.80-0.38L252.80-0.38Q257.22-0.38 261.76-5.18L261.76-5.18L261.76-5.18Q262.34-5.76 262.34-5.12L262.34-5.12L262.34-5.12Q262.34-4.93 261.95-4.48L261.95-4.48L261.95-4.48Q260.67-2.94 258.37-1.54L258.37-1.54L258.37-1.54Q254.66 0.83 252.38 0.83L252.38 0.83L252.38 0.83Q250.11 0.83 248.77-0.42L248.77-0.42L248.77-0.42Q247.42-1.66 247.42-4.22L247.42-4.22L247.42-4.22Q247.42-5.12 247.71-6.59L247.71-6.59L247.71-6.59Q248-8.06 249.18-10.40L249.18-10.40L249.18-10.40Q250.37-12.74 252.06-14.37L252.06-14.37L252.06-14.37Q253.76-16 255.39-16L255.39-16L255.39-16Q257.02-16 258.56-15.04ZM257.02-9.15L257.02-9.15L257.02-9.15Q258.11-11.39 258.11-12.74L258.11-12.74L258.11-12.74Q258.11-14.08 256.96-14.08L256.96-14.08L256.96-14.08Q255.81-14.08 254.14-12.48L254.14-12.48L254.14-12.48Q252.48-10.88 251.52-9.02L251.52-9.02L251.52-9.02Q256.26-9.15 257.02-9.15ZM278.21-1.34L278.21-1.34L278.21-1.34Q278.21 0.13 275.71 1.28L275.71 1.28L275.71 1.28Q274.82 1.66 273.92 1.66L273.92 1.66L273.92 1.66Q271.87 1.47 271.26 0.22L271.26 0.22L271.26 0.22Q270.66-1.02 270.66-1.92L270.66-1.92L270.66-1.92Q270.66-2.82 270.78-4L270.78-4L270.78-4Q270.91-5.18 271.26-6.88L271.26-6.88L271.26-6.88Q271.62-8.58 272.16-10.27L272.16-10.27L272.16-10.27Q272.70-11.97 272.70-12.03L272.70-12.03L272.70-12.03Q272.13-11.26 270.14-8.96L270.14-8.96L270.14-8.96Q265.02-3.26 264.54-1.92L264.54-1.92L264.54-1.92Q264.06-0.58 262.66-0.13L262.66-0.13L262.66-0.13Q261.89 0.13 261.89-0.45L261.89-0.45L261.89-0.45Q261.89-0.58 262.34-2.30L262.34-2.30L262.34-2.30Q263.74-7.68 263.74-10.88L263.74-10.88L263.68-12.61L263.68-12.61Q263.68-13.70 265.15-14.40L265.15-14.40L265.15-14.40Q265.79-14.72 266.30-14.72L266.30-14.72L266.30-14.72Q267.20-14.72 267.01-13.86L267.01-13.86L267.01-13.86Q266.82-12.99 266.37-10.62L266.37-10.62L266.37-10.62Q265.34-5.06 265.09-4.54L265.09-4.54L265.09-4.54Q268.86-8 273.22-14.78L273.22-14.78L273.22-14.78Q273.47-15.23 273.98-15.23L273.98-15.23L273.98-15.23Q275.84-15.23 276.03-14.59L276.03-14.59L276.03-14.59Q276.16-14.14 275.36-11.74L275.36-11.74L275.36-11.74Q274.56-9.34 274.18-7.81L274.18-7.81L274.18-7.81Q273.22-3.90 273.22-2.21L273.22-2.21L273.22-2.21Q273.22-0.51 273.47 0.19L273.47 0.19L273.47 0.19Q273.73 0.90 274.37 0.83L274.37 0.83L274.37 0.83Q276.22 0.58 277.95-1.54L277.95-1.54L277.95-1.54Q278.21-1.79 278.21-1.34ZM283.90-9.09L283.90-9.09L283.90-9.09Q282.05-6.59 281.28-4.74L281.28-4.74L281.28-4.74Q280.51-2.88 280.51-1.98L280.51-1.98L280.51-1.98Q280.51-1.09 281.09-1.09L281.09-1.09L281.09-1.09Q282.82-1.09 288.06-8.77L288.06-8.77L288.06-8.77Q290.11-11.39 290.11-8.70L290.11-8.70L290.11-8.70Q289.98-7.04 289.98-5.89L289.98-5.89L289.98-5.89Q289.98-1.02 292.03-1.02L292.03-1.02L292.03-1.02Q294.21-1.02 297.34-4.54L297.34-4.54L297.34-4.54Q297.54-4.74 297.79-4.29L297.79-4.29L297.79-4.29Q297.60-3.84 296.48-2.72L296.48-2.72L296.48-2.72Q295.36-1.60 293.70-0.70L293.70-0.70L293.70-0.70Q292.03 0.19 291.17 0.19L291.17 0.19L291.17 0.19Q290.30 0.19 289.79 0L289.79 0L289.79 0Q287.42-0.83 287.42-6.53L287.42-6.53L287.42-6.53Q284.86-2.50 283.71-1.41L283.71-1.41L283.71-1.41Q281.92 0.26 280.77 0.26L280.77 0.26L280.77 0.26Q280.70 0.26 280.58 0.26L280.58 0.26L280.58 0.26Q278.46-0.06 278.46-2.59L278.46-2.59L278.46-2.59Q278.46-5.12 280.10-8.22L280.10-8.22L280.10-8.22Q281.73-11.33 284.42-13.82L284.42-13.82L284.42-13.82Q287.10-16.32 289.79-16.32L289.79-16.32L289.79-16.32Q291.07-16.32 292.29-15.68L292.29-15.68L292.29-15.68Q293.38-15.04 293.38-13.66L293.38-13.66L293.38-13.66Q293.38-12.29 292.16-12.10L292.16-12.10L292.16-12.10Q292.61-12.86 292.61-13.54L292.61-13.54L292.61-13.54Q292.61-14.21 291.97-14.53L291.97-14.53L291.97-14.53Q291.33-14.85 290.82-14.85L290.82-14.85L290.82-14.85Q288.06-14.85 283.90-9.09Z" fill="#444"></path></g></g><style>text {
  font-size: 64px;
  font-family: Arial Black;
  dominant-baseline: central;
  text-anchor: middle;
}</style></svg>